<svg width="23" height="22" viewBox="0 0 23 22" fill="none" xmlns="http://www.w3.org/2000/svg">
<mask id="mask0_40_3426" style="mask-type:luminance" maskUnits="userSpaceOnUse" x="0" y="0" width="23" height="22">
<rect x="0.518555" y="0.0656738" width="21.8054" height="21.8054" fill="white"/>
</mask>
<g mask="url(#mask0_40_3426)">
<path fill-rule="evenodd" clip-rule="evenodd" d="M11.4214 2.33691C6.65442 2.33691 2.79005 6.20127 2.79004 10.9682C2.79003 15.7351 6.65438 19.5995 11.4213 19.5996C16.1883 19.5996 20.0526 15.7352 20.0527 10.9683C20.0527 6.20134 16.1883 2.33695 11.4214 2.33691H11.4214Z" fill="#039BE5"/>
<path fill-rule="evenodd" clip-rule="evenodd" d="M12.5902 13.2561H14.8239L15.1746 10.987H12.5897V9.74678C12.5897 8.80415 12.8977 7.96828 13.7795 7.96828H15.1964V5.98807C14.9474 5.95445 14.4209 5.88086 13.426 5.88086C11.3486 5.88086 10.1307 6.97795 10.1307 9.47739V10.987H7.99512V13.2561H10.1307V19.4929C10.5536 19.5565 10.982 19.5997 11.4217 19.5997C11.8192 19.5997 12.2072 19.5633 12.5902 19.5115V13.2561Z" fill="white"/>
</g>
</svg>
