<svg width="23" height="21" viewBox="0 0 23 21" fill="none" xmlns="http://www.w3.org/2000/svg">
<g clip-path="url(#clip0_40_1017)">
<path d="M3.875 9.28125C5.11602 9.28125 6.125 8.18818 6.125 6.84375C6.125 5.49932 5.11602 4.40625 3.875 4.40625C2.63398 4.40625 1.625 5.49932 1.625 6.84375C1.625 8.18818 2.63398 9.28125 3.875 9.28125ZM19.625 9.28125C20.866 9.28125 21.875 8.18818 21.875 6.84375C21.875 5.49932 20.866 4.40625 19.625 4.40625C18.384 4.40625 17.375 5.49932 17.375 6.84375C17.375 8.18818 18.384 9.28125 19.625 9.28125ZM20.75 10.5H18.5C17.8813 10.5 17.3223 10.7704 16.9145 11.2084C18.3312 12.0501 19.3367 13.5697 19.5547 15.375H21.875C22.4973 15.375 23 14.8304 23 14.1562V12.9375C23 11.5931 21.991 10.5 20.75 10.5ZM11.75 10.5C13.9262 10.5 15.6875 8.59189 15.6875 6.23438C15.6875 3.87686 13.9262 1.96875 11.75 1.96875C9.57383 1.96875 7.8125 3.87686 7.8125 6.23438C7.8125 8.59189 9.57383 10.5 11.75 10.5ZM14.45 11.7188H14.1582C13.427 12.0996 12.6148 12.3281 11.75 12.3281C10.8852 12.3281 10.0766 12.0996 9.3418 11.7188H9.05C6.81406 11.7188 5 13.684 5 16.1063V17.2031C5 18.2124 5.75586 19.0312 6.6875 19.0312H16.8125C17.7441 19.0312 18.5 18.2124 18.5 17.2031V16.1063C18.5 13.684 16.6859 11.7188 14.45 11.7188ZM6.58555 11.2084C6.17773 10.7704 5.61875 10.5 5 10.5H2.75C1.50898 10.5 0.5 11.5931 0.5 12.9375V14.1562C0.5 14.8304 1.00273 15.375 1.625 15.375H3.9418C4.16328 13.5697 5.16875 12.0501 6.58555 11.2084Z" fill="#2F327D"/>
</g>
<defs>
<clipPath id="clip0_40_1017">
<rect width="22.5" height="19.5" fill="white" transform="translate(0.5 0.75)"/>
</clipPath>
</defs>
</svg>
