<svg width="23" height="22" viewBox="0 0 23 22" fill="none" xmlns="http://www.w3.org/2000/svg">
<mask id="mask0_40_3418" style="mask-type:luminance" maskUnits="userSpaceOnUse" x="0" y="0" width="23" height="22">
<rect x="0.518555" y="0.0151367" width="21.8054" height="21.8054" fill="white"/>
</mask>
<g mask="url(#mask0_40_3418)">
<path fill-rule="evenodd" clip-rule="evenodd" d="M20.3304 9.13846H19.5986V9.10075H11.4215V12.735H16.5563C15.8072 14.8506 13.7942 16.3692 11.4215 16.3692C8.41102 16.3692 5.97018 13.9284 5.97018 10.9179C5.97018 7.90736 8.41102 5.46651 11.4215 5.46651C12.8112 5.46651 14.0754 5.99075 15.0381 6.84707L17.6079 4.27721C15.9852 2.76491 13.8147 1.83228 11.4215 1.83228C6.40401 1.83228 2.33594 5.90035 2.33594 10.9179C2.33594 15.9354 6.40401 20.0035 11.4215 20.0035C16.4391 20.0035 20.5071 15.9354 20.5071 10.9179C20.5071 10.3087 20.4444 9.71403 20.3304 9.13846Z" fill="#FFC107"/>
<path fill-rule="evenodd" clip-rule="evenodd" d="M3.38379 6.68898L6.36886 8.87816C7.17657 6.87842 9.1327 5.46651 11.4218 5.46651C12.8115 5.46651 14.0757 5.99075 15.0383 6.84707L17.6082 4.27721C15.9855 2.76491 13.815 1.83228 11.4218 1.83228C7.93204 1.83228 4.90563 3.80249 3.38379 6.68898Z" fill="#FF3D00"/>
<path fill-rule="evenodd" clip-rule="evenodd" d="M11.4205 20.0035C13.7673 20.0035 15.8997 19.1054 17.5119 17.6448L14.6999 15.2653C13.7877 15.9563 12.6539 16.3692 11.4205 16.3692C9.05732 16.3692 7.05077 14.8624 6.29484 12.7595L3.33203 15.0423C4.8357 17.9846 7.88937 20.0035 11.4205 20.0035Z" fill="#4CAF50"/>
<path fill-rule="evenodd" clip-rule="evenodd" d="M20.3308 9.13854H19.5989V9.10083H11.4219V12.7351H16.5566C16.1968 13.7513 15.5431 14.6276 14.7 15.2659C14.7004 15.2654 14.7009 15.2654 14.7013 15.265L17.5133 17.6445C17.3143 17.8253 20.5075 15.4607 20.5075 10.9179C20.5075 10.3088 20.4448 9.71411 20.3308 9.13854Z" fill="#1976D2"/>
</g>
</svg>
